<svg id="Layer_1" data-name="Layer 1" xmlns="http://www.w3.org/2000/svg" xmlns:xlink="http://www.w3.org/1999/xlink" viewBox="0 0 101.97 98.3"><defs><style>.cls-1{fill:url(#linear-gradient);}.cls-2{font-size:24px;fill:#ea8500;font-family:Bauhaus93, "Bauhaus 93";}.cls-3{fill:#fff;}</style><linearGradient id="linear-gradient" x1="45.52" y1="88.39" x2="27.56" y2="32.45" gradientTransform="matrix(0.85, -0.52, -0.52, -0.85, 25.56, 78.89)" gradientUnits="userSpaceOnUse"><stop offset="0" stop-color="#df8908"/><stop offset="1" stop-color="#b415ff"/></linearGradient></defs><path class="cls-1" d="M9.67,36.05a1.89,1.89,0,0,1,.87-2.77L43.79,18.43A6.71,6.71,0,0,0,46.44,8a7.56,7.56,0,0,0-11.66.15L13.06,36.18A2.11,2.11,0,0,1,9.67,36.05Z" transform="translate(-2.22 -5.29)"/><text class="cls-2" transform="translate(2.59 40.37) scale(0.94 1)">Prashanth</text><path class="cls-3" d="M2.22,103.13,15,71.5h5l12.69,31.63H26.11l-9.81-26h2.25l-9.94,26ZM9,97.24V92.11H26v5.13Zm27.13,5.89V70.6H42v32.53Zm21.51.45a12.52,12.52,0,0,1-6.07-1.44,11.42,11.42,0,0,1-4.23-4,11.38,11.38,0,0,1,9.9-17.19,10.48,10.48,0,0,1,5.53,1.44,9.77,9.77,0,0,1,3.78,3.87,10.94,10.94,0,0,1,1.4,5.54A8.53,8.53,0,0,1,67.83,93a9.08,9.08,0,0,1-.23,1.35l-18.27,0V90l15.53,0-2.39,1.85a8.33,8.33,0,0,0-.72-3.24,4.19,4.19,0,0,0-1.75-2,5.08,5.08,0,0,0-2.79-.72,5.68,5.68,0,0,0-3.06.81,5.16,5.16,0,0,0-2,2.2,7.58,7.58,0,0,0-.67,3.33,7.88,7.88,0,0,0,.72,3.47,5.57,5.57,0,0,0,2.16,2.25,6.63,6.63,0,0,0,3.24.76,8,8,0,0,0,3-.54,6.56,6.56,0,0,0,2.34-1.71l3.47,3.47a10,10,0,0,1-3.87,2.79A12.56,12.56,0,0,1,57.61,103.58Zm35.1-.45L83.62,89.05h-.9L70.39,71.5h7.25l9,13.27h.9l12.29,18.36Zm-22.86,0L81.69,86.21l4.5,3-9.41,13.9Zm18.05-15-4.5-3,9-13.59h6.93Z" transform="translate(-2.22 -5.29)"/></svg>